<svg width="35" height="22" viewBox="0 0 35 22" fill="none" xmlns="http://www.w3.org/2000/svg">
<path d="M0 19.6429C0 20.9442 1.30423 22 2.91176 22H32.0294C33.637 22 34.9412 20.9442 34.9412 19.6429V19.5888H31.1983L29.2632 17.8652L27.3281 19.5888H14.9713V11.5451H10.9798L15.9358 2.475H20.7039L22.4085 5.57857V2.475H28.3048L29.33 4.8125L30.3612 2.475H34.9412V2.35714C34.9412 1.0558 33.637 0 32.0294 0H2.91176C1.30423 0 0 1.0558 0 2.35714V19.6429ZM26.7154 18.5772L29.2754 16.3036L31.8232 18.5772H34.9412L30.8162 15.0366L34.9412 11.496H31.8717L29.3239 13.7893L26.8064 11.496H23.6884L27.7831 15.0562L23.6945 18.5723V16.9469H18.6596V15.8567H23.5671V14.2705H18.6596V13.1705H23.6945V11.5451H16.2938V18.5772H26.7154ZM32.5572 15.0415L34.9412 17.0991V13.0085L32.5572 15.0415ZM30.3551 10.5237L32.5936 5.58348V10.5237H34.9412V3.48661H31.2893L29.336 7.87187L27.4009 3.48661H23.6884V10.5138L19.8546 3.48661H16.7487L12.9634 10.5237H15.5719L16.2938 9.11429H20.2914L21.0193 10.5237H26.036V5.59821L28.2684 10.5237H30.3551ZM17.1066 7.53304L18.2895 5.22991L19.4664 7.53304H17.1066Z" fill="black"/>
</svg>
