<svg width="30" height="30" viewBox="0 0 30 30" fill="none" xmlns="http://www.w3.org/2000/svg">
<path d="M8.16208 1.18652L7.21873 1.4502C7.76951 3.41309 8.52537 4.44434 9.38669 4.9834C10.2597 5.53418 11.2676 5.58105 12.3691 5.48145C13.834 5.34668 15.4863 4.91895 17.1738 5.5459C17.6308 5.75098 18.1113 6.01172 18.6211 6.35742C18.8906 6.27539 19.125 6.16992 19.3593 6.09375C19.3593 6.09375 19.5468 5.49316 19.2422 4.72559C18.9785 4.05176 18.3222 3.20215 16.664 2.60449L16.3359 3.51855C17.3554 3.89355 17.9062 4.35645 18.1875 4.7959C18.2285 4.86035 18.2578 4.91895 18.2871 4.97754C18.0644 4.86035 17.8359 4.75488 17.6133 4.67285C15.9668 3.91113 14.6484 3.86426 13.5937 3.74707C13.0312 3.68848 12.5566 3.61816 12.164 3.33691C11.7715 3.0498 11.4785 2.55176 11.2265 1.68457L10.289 1.95996C10.623 3.1084 11.0683 3.74121 11.5898 4.12207C11.8242 4.29199 12.0761 4.41504 12.3457 4.50293C11.4199 4.55273 10.5468 4.54219 9.90232 4.15723C9.18748 3.70605 8.61912 2.81543 8.16208 1.18652ZM13.4062 1.39746C13.3535 2.05371 13.4707 2.58691 13.664 3.02051C14.1152 3.07676 14.5078 3.08496 14.9179 3.15527C14.6015 2.80371 14.3203 2.26465 14.3789 1.46777L13.4062 1.39746ZM20.4551 2.18848L19.8164 2.9209C20.2968 3.34277 20.4316 3.84668 20.4316 4.27441C20.1738 4.04473 19.9394 3.8918 19.664 3.75293C20.0859 4.24629 20.1445 5.12168 20.1738 5.59277L21.082 5.69238C21.082 5.69238 22.1133 3.62988 20.4551 2.18848ZM15.7265 6.25195C14.7011 6.36914 14.1562 6.09961 13.8281 7.06055C13.8281 7.06055 14.9297 8.69531 17.8652 8.6543C17.7011 9.32227 17.7773 9.81445 17.7773 10.4063C17.7773 12.375 16.1953 14.0918 12.709 14.0918C10.9394 14.0918 8.78904 14.4082 7.14841 15.293C5.9824 15.9199 5.07009 16.8281 4.66638 18.0879L5.124 18.7266L5.99998 18.7383V22.3535L4.93123 24.0117L5.23826 28.8164H6.25193L6.33982 24.9492C6.84373 24.6562 7.99802 23.8945 8.9824 22.7227C10.3183 21.1465 11.3437 18.8555 10.1367 16.0195L11.039 15.6387C12.0293 17.9648 11.6836 19.9805 10.8164 21.6035C12.4746 21.5508 13.8984 21.4453 15.1054 21.2461L14.8301 17.9473L15.8027 17.8652L16.7285 28.8164H17.7363L17.9062 21.6855C18.709 21.3457 20.5371 20.0977 21.3926 15.7617C21.498 15.2344 21.5566 14.7891 21.5859 14.4082C21.7207 13.4414 21.7968 12.3516 21.8203 11.1094L20.3847 10.6582H24.7968L25.2246 9.69141C24.8086 9.70898 24.3105 9.49219 24.3105 9.49219L24.4101 9.02344H25.3359L20.3261 6.42773C19.7695 6.63867 19.1836 6.91406 18.7734 7.24805C18.4453 7.01367 17.3086 6.28125 15.7265 6.25195ZM21.3222 19.5293C20.7539 20.5898 20.1445 21.3809 19.6172 21.9434L22.3769 23.1621L21.1523 25.9453L22.0312 26.3555L23.9883 22.5586L21.3926 20.3672C21.3691 20.2324 21.3398 19.9687 21.3222 19.5293ZM12.3105 22.5059C11.6484 22.5469 10.9453 22.5762 10.1953 22.5879C9.68552 23.2617 9.09958 23.9121 8.49021 24.416L8.99998 28.8105H10.0019V25.002C10.4297 24.6504 11.4609 23.7539 12.3105 22.5059Z" fill="black"/>
</svg>
