<svg width="32" height="37" viewBox="0 0 32 37" fill="none" xmlns="http://www.w3.org/2000/svg">
<path d="M15.7504 8.91037C15.8261 8.94651 15.8866 9.03323 15.9774 9.03323C16.0607 9.03323 16.1893 9.00432 16.1969 8.92483C16.212 8.82365 16.0531 8.75862 15.9547 8.71526C15.8261 8.66467 15.6596 8.64299 15.5385 8.70803C15.5082 8.72248 15.4779 8.75862 15.4931 8.78752C15.5158 8.88147 15.6671 8.86701 15.7504 8.91037ZM14.0931 9.03323C14.1839 9.03323 14.2444 8.94651 14.3201 8.91037C14.4033 8.86701 14.5547 8.88147 14.585 8.79475C14.6001 8.76584 14.5698 8.72971 14.5396 8.71526C14.4185 8.65022 14.252 8.6719 14.1233 8.72248C14.0249 8.76584 13.866 8.83088 13.8812 8.93205C13.8887 9.00432 14.0174 9.04045 14.0931 9.03323ZM30.8253 29.1809C30.5528 28.8918 30.4242 28.3426 30.2804 27.7572C30.1442 27.1719 29.9852 26.5432 29.4858 26.1385C29.3874 26.059 29.289 25.9867 29.1831 25.9289C29.0847 25.8711 28.9787 25.8205 28.8728 25.7844C29.569 23.8115 29.2966 21.8459 28.5928 20.0682C27.7301 17.893 26.2241 15.9924 25.0738 14.6916C23.7797 13.1379 22.5235 11.6637 22.5462 9.4885C22.584 6.17151 22.9321 0.00724746 16.8099 2.08974e-05C9.06053 -0.0144322 10.9979 7.47229 10.9146 9.77033C10.786 11.4614 10.4303 12.791 9.21188 14.4459C7.78158 16.0719 5.76857 18.6951 4.81504 21.434C4.36098 22.7276 4.14908 24.0428 4.34584 25.2858C3.85394 25.7049 3.48313 26.3481 3.0896 26.7455C2.77176 27.0563 2.31013 27.1719 1.80309 27.3453C1.29606 27.5188 0.743614 27.7789 0.403067 28.3932C0.244145 28.675 0.191171 28.9785 0.191171 29.2893C0.191171 29.5711 0.236577 29.8602 0.281984 30.142C0.372796 30.7274 0.471176 31.2766 0.342525 31.6451C-0.0509955 32.6858 -0.10397 33.4084 0.176036 33.936C0.463609 34.4635 1.03875 34.6947 1.69715 34.8248C3.00636 35.085 4.78477 35.0199 6.1848 35.7281C7.6832 36.4797 9.20431 36.7471 10.4151 36.4797C11.293 36.2918 12.0119 35.786 12.3752 35.0199C13.3211 35.0127 14.3655 34.6297 16.0304 34.543C17.158 34.4563 18.5731 34.926 20.2002 34.8393C20.2456 35.0055 20.3061 35.1717 20.3894 35.3235V35.3307C21.0175 36.5375 22.1905 37.0867 23.4392 36.9928C24.6954 36.8989 26.0198 36.1979 27.0944 34.9766C28.1236 33.7914 29.8188 33.3 30.9463 32.6496C31.5064 32.3244 31.9604 31.9197 31.9983 31.3272C32.0285 30.7346 31.6653 30.077 30.8253 29.1809ZM15.9698 6.30881C16.7115 4.70451 18.558 4.73342 19.2996 6.2799C19.7915 7.30608 19.5721 8.51291 18.9742 9.19944C18.8531 9.14162 18.5277 9.01155 18.0207 8.84533C18.1039 8.75862 18.2553 8.65022 18.3158 8.51291C18.6791 7.66018 18.3007 6.56174 17.6272 6.54006C17.0747 6.50393 16.5753 7.32053 16.7342 8.20217C16.4239 8.05764 16.0228 7.94924 15.7504 7.8842C15.6747 7.38557 15.7277 6.82912 15.9698 6.30881ZM12.8898 5.47776C13.6541 5.47776 14.4639 6.50393 14.3352 7.89865C14.0704 7.97092 13.7979 8.07932 13.5633 8.23108C13.6541 7.58791 13.3136 6.77854 12.8368 6.81467C12.2011 6.86526 12.0952 8.3467 12.7006 8.84533C12.7763 8.90315 12.8444 8.83088 12.2541 9.2428C11.0735 8.18772 11.4595 5.47776 12.8898 5.47776ZM11.8606 9.86428C12.3298 9.53186 12.8898 9.14162 12.9276 9.10549C13.2833 8.78752 13.9493 8.07932 15.039 8.07932C15.5763 8.07932 16.2196 8.24553 16.9991 8.72248C17.4758 9.01877 17.8542 9.04045 18.7094 9.39455C19.345 9.64748 19.7461 10.0955 19.504 10.7098C19.3072 11.2229 18.6715 11.7504 17.7861 12.0178C16.9461 12.278 16.2877 13.174 14.8952 13.0946C14.6001 13.0801 14.3655 13.0223 14.1687 12.9428C13.5633 12.6899 13.2455 12.1912 12.6552 11.8588C12.0044 11.5119 11.6563 11.1072 11.5427 10.7531C11.4368 10.399 11.5427 10.1028 11.8606 9.86428ZM12.1103 34.001C11.906 36.5375 8.78809 36.4869 6.41183 35.3018C4.14908 34.16 1.22038 34.8321 0.622531 33.7192C0.440906 33.3795 0.440906 32.8014 0.819291 31.8114V31.7969C1.00092 31.2477 0.864697 30.6406 0.773885 30.0697C0.683072 29.5061 0.637666 28.9858 0.841994 28.6244C1.10686 28.1403 1.48525 27.9668 1.96202 27.8078C2.74149 27.5405 2.85501 27.5621 3.44529 27.0924C3.86151 26.6805 4.16422 26.1602 4.52747 25.7916C4.91342 25.3942 5.28424 25.2063 5.86695 25.293C6.47994 25.3797 7.00968 25.7844 7.52428 26.4492L9.00755 29.0219C9.72649 30.46 12.2692 32.5196 12.1103 34.001ZM12.0044 32.1293C11.6941 31.6524 11.2779 31.1465 10.9146 30.7129C11.4519 30.7129 11.9892 30.5539 12.1784 30.0697C12.3525 29.6217 12.1784 28.993 11.6184 28.2703C10.5968 26.9551 8.71998 25.9217 8.71998 25.9217C7.69834 25.3147 7.12319 24.5703 6.85832 23.761C6.59345 22.9516 6.63129 22.0772 6.83562 21.2172C7.22914 19.5623 8.24321 17.9508 8.89404 16.9391C9.0681 16.8162 8.95458 17.1703 8.23565 18.4422C7.59239 19.6057 6.38913 22.294 8.03889 24.3969C8.08429 22.901 8.45511 21.3762 9.08323 19.9526C9.99136 17.9725 11.906 14.5399 12.0573 11.8082C12.1406 11.866 12.4055 12.0395 12.5265 12.1045C12.8747 12.2996 13.1395 12.5887 13.4801 12.8489C14.4185 13.5715 15.6369 13.5137 16.6888 12.9356C17.158 12.6826 17.5364 12.3936 17.892 12.2852C18.6412 12.0612 19.2391 11.6637 19.5796 11.2012C20.1624 13.3981 21.5245 16.5705 22.3948 18.117C22.8565 18.9408 23.7797 20.6824 24.1808 22.7854C24.4305 22.7781 24.7106 22.8143 25.0057 22.8865C26.05 20.3067 24.1203 17.5244 23.2424 16.7512C22.8867 16.4188 22.8716 16.2742 23.0457 16.2815C23.9992 17.0908 25.2554 18.7168 25.7095 20.5451C25.9214 21.3834 25.9592 22.2578 25.7398 23.125C26.9809 23.6164 28.4566 24.4186 28.063 25.6399C27.8966 25.6326 27.8209 25.6399 27.7452 25.6399C27.9874 24.91 27.4501 24.368 26.0198 23.7537C24.5365 23.1322 23.2954 23.1322 23.1213 24.6571C22.2056 24.9606 21.7364 25.7194 21.5018 26.6299C21.2899 27.4393 21.2294 28.4149 21.1689 29.5133C21.131 30.0697 20.8964 30.8141 20.6543 31.609C18.225 33.2639 14.8498 33.9865 12.0044 32.1293ZM31.4837 31.2983C31.4155 32.5123 28.3658 32.7364 26.7009 34.6586C25.7019 35.7932 24.476 36.4219 23.4013 36.5014C22.3267 36.5809 21.3959 36.1545 20.851 35.1067C20.4953 34.3045 20.6694 33.4373 20.9343 32.4834C21.2143 31.4572 21.6305 30.4022 21.6835 29.5494C21.744 28.451 21.8121 27.4899 22.0013 26.7528C22.1981 26.0084 22.5008 25.5098 23.0381 25.228C23.0608 25.2135 23.0911 25.2063 23.1138 25.1918C23.1743 26.1457 23.6662 27.1141 24.5365 27.3237C25.49 27.5621 26.8598 26.7817 27.4425 26.1457C28.1236 26.124 28.6306 26.0807 29.1528 26.5143C29.902 27.1285 29.6901 28.7039 30.4469 29.5205C31.2491 30.3588 31.5064 30.9297 31.4837 31.2983ZM12.1557 10.7459C12.3071 10.8832 12.5114 11.0711 12.7611 11.259C13.2606 11.6348 13.9568 12.025 14.8271 12.025C15.705 12.025 16.5299 11.5987 17.2337 11.2446C17.6045 11.0567 18.0585 10.7387 18.3537 10.493C18.6488 10.2473 18.8002 10.0377 18.5883 10.016C18.3764 9.99436 18.3915 10.2039 18.1342 10.3846C17.8012 10.6158 17.4001 10.9194 17.0823 11.0928C16.5223 11.3963 15.6066 11.8299 14.8196 11.8299C14.0325 11.8299 13.4044 11.483 12.9352 11.1289C12.7006 10.9483 12.5038 10.7676 12.3525 10.6303C12.239 10.5291 12.2087 10.2979 12.0271 10.2762C11.9211 10.269 11.8909 10.5436 12.1557 10.7459Z" fill="black"/>
</svg>
