<svg width="12" height="11" viewBox="0 0 12 11" fill="none" xmlns="http://www.w3.org/2000/svg">
<path d="M3.15775 5.41711L5.69995 7.19665L8.24215 5.41711" stroke="black" stroke-width="0.762659" stroke-linecap="round" stroke-linejoin="round"/>
<path d="M0.615555 9.48465V3.95893C0.615553 3.78332 0.661025 3.61072 0.747542 3.45791C0.834059 3.3051 0.958674 3.1773 1.10925 3.08695L5.17677 0.646441C5.33481 0.551616 5.51565 0.501526 5.69995 0.501526C5.88426 0.501526 6.0651 0.551616 6.22314 0.646441L10.2907 3.08695C10.4412 3.1773 10.5658 3.3051 10.6524 3.45791C10.7389 3.61072 10.7843 3.78332 10.7843 3.95893V9.48465C10.7843 9.75434 10.6772 10.013 10.4865 10.2037C10.2958 10.3944 10.0372 10.5015 9.76747 10.5015H1.63243C1.36274 10.5015 1.10409 10.3944 0.913392 10.2037C0.72269 10.013 0.615555 9.75434 0.615555 9.48465Z" stroke="black" stroke-width="0.762659"/>
</svg>
