<svg width="36" height="22" viewBox="0 0 36 22" fill="#F9F9F9" xmlns="http://www.w3.org/2000/svg">
<path d="M29.4847 18.5281C29.4847 18.8621 29.2057 19.1027 28.8053 19.1027C28.3928 19.1027 28.1259 18.8473 28.1259 18.5281C28.1259 18.2089 28.3928 17.9536 28.8053 17.9536C29.2057 17.9536 29.4847 18.2089 29.4847 18.5281ZM10.6311 17.9536C10.2004 17.9536 9.95166 18.2089 9.95166 18.5281C9.95166 18.8473 10.2004 19.1027 10.6311 19.1027C11.0254 19.1027 11.2923 18.8621 11.2923 18.5281C11.2862 18.2089 11.0254 17.9536 10.6311 17.9536ZM17.7588 17.9388C17.4313 17.9388 17.2311 18.1107 17.1825 18.3661H18.3412C18.2866 18.0862 18.0743 17.9388 17.7588 17.9388ZM24.2982 17.9536C23.8857 17.9536 23.6369 18.2089 23.6369 18.5281C23.6369 18.8473 23.8857 19.1027 24.2982 19.1027C24.7107 19.1027 24.9776 18.8621 24.9776 18.5281C24.9776 18.2089 24.7107 17.9536 24.2982 17.9536ZM30.7222 19.2353C30.7222 19.25 30.7404 19.2598 30.7404 19.2893C30.7404 19.304 30.7222 19.3138 30.7222 19.3433C30.704 19.358 30.704 19.3679 30.6919 19.3826C30.6737 19.3973 30.6616 19.4071 30.6252 19.4071C30.607 19.4219 30.5949 19.4219 30.5585 19.4219C30.5403 19.4219 30.5281 19.4219 30.4917 19.4071C30.4735 19.4071 30.4614 19.3924 30.4432 19.3826C30.425 19.3679 30.4129 19.358 30.4129 19.3433C30.3947 19.3187 30.3947 19.304 30.3947 19.2893C30.3947 19.2647 30.3947 19.25 30.4129 19.2353C30.4129 19.2107 30.4311 19.196 30.4432 19.1812C30.4614 19.1665 30.4735 19.1665 30.4917 19.1567C30.5221 19.142 30.5403 19.142 30.5585 19.142C30.5888 19.142 30.607 19.142 30.6252 19.1567C30.6555 19.1714 30.6737 19.1714 30.6919 19.1812C30.7101 19.1911 30.704 19.2107 30.7222 19.2353ZM30.5888 19.304C30.6191 19.304 30.6191 19.2893 30.6373 19.2893C30.6555 19.2746 30.6555 19.2647 30.6555 19.25C30.6555 19.2353 30.6555 19.2254 30.6373 19.2107C30.6191 19.2107 30.607 19.196 30.5706 19.196H30.4735V19.3679H30.5221V19.2991H30.5403L30.607 19.3679H30.6555L30.5888 19.304ZM35.1324 2.35714V19.6429C35.1324 20.9442 33.8281 22 32.2206 22H3.10294C1.49541 22 0.191177 20.9442 0.191177 19.6429V2.35714C0.191177 1.0558 1.49541 0 3.10294 0H32.2206C33.8281 0 35.1324 1.0558 35.1324 2.35714ZM4.07353 9.2125C4.07353 12.9692 7.84063 16.0138 12.4752 16.0138C14.1252 16.0138 15.7449 15.6112 17.1158 14.8795C12.6936 11.9674 12.7239 6.47232 17.1158 3.56027C15.7449 2.82366 14.1252 2.42589 12.4752 2.42589C7.84063 2.42098 4.07353 5.47054 4.07353 9.2125ZM17.6618 14.5554C21.9384 11.8545 21.9202 6.59018 17.6618 3.87455C13.4033 6.59018 13.3851 11.8594 17.6618 14.5554ZM9.0296 18.3022C9.0296 17.875 8.68382 17.5951 8.13787 17.5804C7.85882 17.5804 7.56158 17.6491 7.3614 17.8996C7.21581 17.6982 6.9671 17.5804 6.62132 17.5804C6.39081 17.5804 6.1603 17.6491 5.97831 17.8455V17.6295H5.48088V19.4317H5.97831C5.97831 18.5036 5.82666 17.9487 6.52427 17.9487C7.14302 17.9487 7.02169 18.4496 7.02169 19.4317H7.50092C7.50092 18.533 7.34927 17.9487 8.04688 17.9487C8.66563 17.9487 8.5443 18.4397 8.5443 19.4317H9.04173V18.3022H9.0296ZM11.7533 17.6295H11.2741V17.8455C11.1103 17.6835 10.8798 17.5804 10.5643 17.5804C9.93952 17.5804 9.4603 17.983 9.4603 18.5281C9.4603 19.0781 9.93952 19.4759 10.5643 19.4759C10.8798 19.4759 11.1103 19.3826 11.2741 19.2107V19.4366H11.7533V17.6295ZM14.2101 18.8866C14.2101 18.15 12.821 18.4839 12.821 18.1402C12.821 17.8603 13.5428 17.9045 13.9432 18.0862L14.1434 17.767C13.5732 17.4674 12.3114 17.4723 12.3114 18.1696C12.3114 18.8719 13.7006 18.5772 13.7006 18.9062C13.7006 19.2156 12.8816 19.1911 12.4449 18.9455L12.2325 19.2549C12.912 19.6281 14.2101 19.5496 14.2101 18.8866ZM16.3575 19.3433L16.2241 19.0094C15.9936 19.1125 15.484 19.2254 15.484 18.808V17.9929H16.2787V17.6295H15.484V17.0795H14.9866V17.6295H14.5256V17.9879H14.9866V18.808C14.9866 19.6723 16.036 19.5152 16.3575 19.3433ZM17.1643 18.6853H18.8325C18.8325 17.8897 18.3836 17.5754 17.777 17.5754C17.134 17.5754 16.673 17.9634 16.673 18.5232C16.673 19.5299 18.0439 19.6969 18.7233 19.2205L18.4928 18.9259C18.0197 19.2402 17.3039 19.2107 17.1643 18.6853ZM20.7494 17.6295C20.4704 17.5312 20.0458 17.5411 19.8274 17.8455V17.6295H19.33V19.4317H19.8274V18.4152C19.8274 17.8455 20.4037 17.9192 20.6039 18.0027L20.7494 17.6295ZM21.3925 18.5281C21.3925 17.9683 22.0961 17.7866 22.6482 18.1156L22.8787 17.7964C22.175 17.3496 20.895 17.5951 20.895 18.533C20.895 19.5054 22.2539 19.7018 22.8787 19.2696L22.6482 18.9504C22.0901 19.2696 21.3925 19.0781 21.3925 18.5281ZM25.4386 17.6295H24.9412V17.8455C24.4377 17.3054 23.1274 17.6098 23.1274 18.5281C23.1274 19.471 24.4862 19.7411 24.9412 19.2107V19.4366H25.4386V17.6295ZM27.4829 17.6295C27.3373 17.5705 26.8156 17.4871 26.5608 17.8455V17.6295H26.0816V19.4317H26.5608V18.4152C26.5608 17.875 27.1068 17.9094 27.3373 18.0027L27.4829 17.6295ZM29.9276 16.8978H29.4483V17.8455C28.9509 17.3103 27.6346 17.5951 27.6346 18.5281C27.6346 19.4808 28.9994 19.7362 29.4483 19.2107V19.4366H29.9276V16.8978ZM30.3886 13.2098V13.4357H30.4371V13.2098H30.5524V13.1705H30.2733V13.2098H30.3886ZM30.789 19.2893C30.789 19.2647 30.789 19.2353 30.7708 19.2107C30.7526 19.196 30.7404 19.1714 30.7222 19.1567C30.704 19.142 30.6737 19.1321 30.6555 19.1174C30.6252 19.1174 30.5888 19.1027 30.5585 19.1027C30.5403 19.1027 30.5099 19.1174 30.4735 19.1174C30.4432 19.1321 30.425 19.142 30.4068 19.1567C30.3765 19.1714 30.3583 19.196 30.3583 19.2107C30.3401 19.2353 30.3401 19.2647 30.3401 19.2893C30.3401 19.304 30.3401 19.3286 30.3583 19.358C30.3583 19.3728 30.3765 19.3973 30.4068 19.4121C30.425 19.4268 30.4371 19.4366 30.4735 19.4513C30.5039 19.4661 30.5403 19.4661 30.5585 19.4661C30.5888 19.4661 30.6252 19.4661 30.6555 19.4513C30.6737 19.4366 30.704 19.4268 30.7222 19.4121C30.7404 19.3973 30.7526 19.3728 30.7708 19.358C30.789 19.3286 30.789 19.304 30.789 19.2893ZM30.9831 13.1656H30.8982L30.8011 13.3375L30.704 13.1656H30.6191V13.4308H30.6676V13.2295L30.7647 13.4013H30.8314L30.9164 13.2295V13.4308H30.9831V13.1656ZM31.25 9.2125C31.25 5.47054 27.4829 2.42098 22.8483 2.42098C21.1983 2.42098 19.5787 2.82366 18.2077 3.55536C22.5814 6.46741 22.6482 11.9772 18.2077 14.8746C19.5787 15.6112 21.2105 16.0089 22.8483 16.0089C27.4829 16.0138 31.25 12.9692 31.25 9.2125Z" fill="#F9F9F9"/>
</svg>
