<svg width="35" height="22" viewBox="0 0 35 22" fill="#F9F9F9" xmlns="http://www.w3.org/2000/svg">
<path d="M11.579 11.108C11.579 11.7071 10.996 12.1638 10.2568 12.1638C9.70388 12.1638 9.2952 11.9085 9.2952 11.4272C9.2952 10.8281 9.86615 10.3469 10.5994 10.3469C11.1583 10.3469 11.579 10.6268 11.579 11.108ZM5.22041 8.72634H4.93794C4.84779 8.72634 4.75764 8.77545 4.74562 8.85893L4.48719 10.1701L4.98001 10.1554C5.64111 10.1554 6.15196 10.0817 6.27216 9.45804C6.41039 8.8 5.89954 8.72634 5.22041 8.72634ZM22.2888 8.72634H22.0184C21.9102 8.72634 21.8381 8.77545 21.8261 8.85893L21.5736 10.1701L22.0544 10.1554C22.8357 10.1554 23.3766 10.008 23.3766 9.27143C23.3706 8.75089 22.7997 8.72634 22.2888 8.72634ZM35 2.35714V19.6429C35 20.9442 33.7078 22 32.1152 22H3.26716C1.67451 22 0.382355 20.9442 0.382355 19.6429V2.35714C0.382355 1.0558 1.67451 0 3.26716 0H32.1152C33.7078 0 35 1.0558 35 2.35714ZM8.09319 9.00625C8.09319 7.975 7.11957 7.63125 6.00772 7.63125H3.60372C3.45347 7.63125 3.30322 7.72946 3.2912 7.86205L2.30556 12.8759C2.28753 12.9741 2.37768 13.0723 2.49788 13.0723H3.63978C3.80205 13.0723 3.9523 12.9299 3.97033 12.7924L4.24078 11.4862C4.30088 11.1326 5.0341 11.2554 5.32258 11.2554C7.04144 11.2554 8.09319 10.4205 8.09319 9.00625ZM13.1536 9.43839H12.0117C11.7833 9.43839 11.7713 9.70848 11.7593 9.84107C11.4107 9.42366 10.9059 9.35 10.3349 9.35C8.86248 9.35 7.7386 10.4058 7.7386 11.5696C7.7386 12.5272 8.47183 13.1509 9.64378 13.1509C10.1847 13.1509 10.8578 12.9103 11.2364 12.5665C11.2064 12.6402 11.1763 12.7973 11.1763 12.871C11.1763 12.9839 11.2364 13.0674 11.3686 13.0674H12.4024C12.5646 13.0674 12.7029 12.925 12.7329 12.7875L13.3459 9.62991C13.364 9.53661 13.2738 9.43839 13.1536 9.43839ZM15.5877 14.246L19.416 9.69866C19.4461 9.67411 19.4461 9.64955 19.4461 9.61518C19.4461 9.5317 19.3559 9.4433 19.2538 9.4433H18.0999C17.9977 9.4433 17.8895 9.49241 17.8294 9.56607L16.2368 11.4812L15.5757 9.63973C15.5276 9.5317 15.3954 9.4433 15.2451 9.4433H14.1212C14.0191 9.4433 13.9289 9.5317 13.9289 9.61518C13.9289 9.67411 15.1009 12.4045 15.203 12.6647C15.0408 12.8513 13.971 14.0692 13.971 14.2165C13.971 14.3049 14.0611 14.3737 14.1633 14.3737H15.3172C15.4254 14.3688 15.5276 14.3196 15.5877 14.246ZM25.1616 9.00625C25.1616 7.975 24.188 7.63125 23.0761 7.63125H20.6902C20.5279 7.63125 20.3777 7.72946 20.3596 7.86205L19.386 12.871C19.374 12.9692 19.4641 13.0674 19.5783 13.0674H20.8104C20.9306 13.0674 21.0207 12.9937 21.0508 12.9103L21.3212 11.4862C21.3813 11.1326 22.1145 11.2554 22.403 11.2554C24.1099 11.2554 25.1616 10.4205 25.1616 9.00625ZM30.222 9.43839H29.0801C28.8518 9.43839 28.8397 9.70848 28.8217 9.84107C28.4912 9.42366 27.9803 9.35 27.3973 9.35C25.9249 9.35 24.801 10.4058 24.801 11.5696C24.801 12.5272 25.5342 13.1509 26.7062 13.1509C27.2651 13.1509 27.9382 12.9103 28.2988 12.5665C28.2808 12.6402 28.2387 12.7973 28.2387 12.871C28.2387 12.9839 28.2988 13.0674 28.4311 13.0674H29.4708C29.6331 13.0674 29.7713 12.925 29.8013 12.7875L30.4144 9.62991C30.4324 9.53661 30.3422 9.43839 30.222 9.43839ZM33.0768 7.80312C33.0768 7.70491 32.9866 7.63125 32.8845 7.63125H31.7726C31.6825 7.63125 31.5923 7.69018 31.5803 7.76384L30.6067 12.871L30.5887 12.8955C30.5887 12.9839 30.6788 13.0674 30.799 13.0674H31.7907C31.9409 13.0674 32.0912 12.925 32.1032 12.7875L33.0768 7.81786V7.80312ZM27.6678 10.3469C26.9346 10.3469 26.3636 10.8232 26.3636 11.4272C26.3636 11.9036 26.7843 12.1638 27.3372 12.1638C28.0584 12.1638 28.6414 11.7121 28.6414 11.108C28.6474 10.6268 28.2267 10.3469 27.6678 10.3469Z" fill="#F9F9F9"/>
</svg>
