<svg width="11" height="17" viewBox="0 0 11 17" fill="none" xmlns="http://www.w3.org/2000/svg">
<path d="M8.69995 1.50153C8.96517 1.50153 9.21952 1.60688 9.40706 1.79442C9.59459 1.98196 9.69995 2.23631 9.69995 2.50153V14.5015C9.69995 14.7667 9.59459 15.0211 9.40706 15.2086C9.21952 15.3962 8.96517 15.5015 8.69995 15.5015H2.69995C2.43473 15.5015 2.18038 15.3962 1.99284 15.2086C1.80531 15.0211 1.69995 14.7667 1.69995 14.5015V2.50153C1.69995 2.23631 1.80531 1.98196 1.99284 1.79442C2.18038 1.60688 2.43473 1.50153 2.69995 1.50153H8.69995ZM2.69995 0.501526C2.16952 0.501526 1.66081 0.71224 1.28574 1.08731C0.910665 1.46239 0.699951 1.97109 0.699951 2.50153V14.5015C0.699951 15.032 0.910665 15.5407 1.28574 15.9157C1.66081 16.2908 2.16952 16.5015 2.69995 16.5015H8.69995C9.23038 16.5015 9.73909 16.2908 10.1142 15.9157C10.4892 15.5407 10.7 15.032 10.7 14.5015V2.50153C10.7 1.97109 10.4892 1.46239 10.1142 1.08731C9.73909 0.71224 9.23038 0.501526 8.69995 0.501526H2.69995Z" fill="black"/>
<path d="M5.69995 14.5015C5.96517 14.5015 6.21952 14.3962 6.40706 14.2086C6.59459 14.0211 6.69995 13.7667 6.69995 13.5015C6.69995 13.2363 6.59459 12.982 6.40706 12.7944C6.21952 12.6069 5.96517 12.5015 5.69995 12.5015C5.43473 12.5015 5.18038 12.6069 4.99284 12.7944C4.80531 12.982 4.69995 13.2363 4.69995 13.5015C4.69995 13.7667 4.80531 14.0211 4.99284 14.2086C5.18038 14.3962 5.43473 14.5015 5.69995 14.5015Z" fill="black"/>
</svg>
