<svg width="36" height="22" viewBox="0 0 36 22" fill="#F9F9F9" xmlns="http://www.w3.org/2000/svg">
<path d="M30.4654 9.27143C29.9256 9.27143 29.3311 9.60045 29.3311 10.3862H31.5574C31.5574 9.60045 30.9932 9.27143 30.4654 9.27143ZM23.3438 9.39911C22.8463 9.39911 22.5369 9.54152 22.3125 9.74286L22.3246 12.3357C22.537 12.5174 22.8403 12.6647 23.3438 12.6647C24.1384 12.6647 24.6722 11.9625 24.6722 11.0246C24.6722 10.1112 24.1263 9.3942 23.3438 9.39911ZM32.625 0H3.50735C1.89982 0 0.595589 1.0558 0.595589 2.35714V19.6429C0.595589 20.9442 1.89982 22 3.50735 22H32.625C34.2325 22 35.5368 20.9442 35.5368 19.6429V2.35714C35.5368 1.0558 34.2325 0 32.625 0ZM8.00846 12.2326C8.00846 13.4897 6.77702 14.2018 4.98143 14.2116C4.24136 14.2116 3.42849 14.0937 2.62776 13.8138V12.1491C3.3557 12.4634 4.27169 12.704 4.9875 12.704C5.46673 12.704 5.8125 12.6009 5.8125 12.2768C5.8125 11.442 2.53677 11.7563 2.53677 9.82634C2.53677 8.58884 3.70147 7.85223 5.44853 7.85223C6.16434 7.85223 6.87408 7.94062 7.58989 8.17143V9.81161C6.93474 9.52679 6.10368 9.36473 5.44853 9.36473C4.99357 9.36473 4.71452 9.47277 4.71452 9.74286C4.71452 10.5286 8.00846 10.1554 8.00846 12.2326ZM12.182 9.45312H10.5441V11.933C10.5441 12.9594 11.909 12.6402 12.182 12.5518V13.971C11.8969 14.0987 11.3752 14.2018 10.6715 14.2018C9.39155 14.2018 8.43309 13.4406 8.43309 12.4094L8.44522 6.81607L10.5502 6.45268V7.96518H12.182V9.45312ZM16.671 9.57098C16.398 9.49732 15.5366 9.3942 15.027 9.93437V14.079H12.8735V7.96518H14.7358L14.8693 8.4808C15.3728 7.72946 16.3798 7.8817 16.6649 7.96518H16.671V9.57098ZM19.3461 14.079H17.1805V7.96518H19.3461V14.079ZM19.3461 7.06161L17.1805 7.43482V6.01562L19.3461 5.64241V7.06161ZM23.8412 14.2067C23.089 14.2067 22.6279 13.9464 22.3186 13.7647L22.3125 15.7388L20.159 16.1071V7.96518H22.0577L22.1669 8.39732C22.4642 8.17634 23.0101 7.85223 23.8533 7.85223C25.3638 7.85223 26.7893 8.95714 26.7893 10.9853C26.7893 13.2 25.382 14.2018 23.8412 14.2067ZM33.5713 11.6777H29.3553C29.4524 12.4929 30.1925 12.7335 31.0296 12.7335C31.8849 12.7335 32.5583 12.5862 33.1467 12.3455V13.75C32.5583 14.0103 31.7879 14.2018 30.7566 14.2018C28.6577 14.2018 27.1897 13.1362 27.1897 11.0344C27.1897 9.2567 28.4333 7.84732 30.4836 7.84732C32.5279 7.84732 33.5956 9.2567 33.5956 11.0442C33.5956 11.2161 33.5774 11.5795 33.5713 11.6777Z" fill="#F9F9F9"/>
</svg>
