<svg width="36" height="22" viewBox="0 0 36 22" fill="none" xmlns="http://www.w3.org/2000/svg">
<path d="M29.3039 9.78705C29.3039 9.78705 29.7649 11.6138 29.868 11.9969H27.8419C28.0421 11.5598 28.8125 9.86071 28.8125 9.86071C28.8004 9.87545 29.0127 9.41384 29.134 9.12902L29.3039 9.78705ZM35.7279 2.35714V19.6429C35.7279 20.9442 34.4237 22 32.8162 22H3.69853C2.09099 22 0.786766 20.9442 0.786766 19.6429V2.35714C0.786766 1.0558 2.09099 0 3.69853 0H32.8162C34.4237 0 35.7279 1.0558 35.7279 2.35714ZM10.0377 14.6929L13.8715 7.07143H11.2934L8.90938 12.2768L8.64853 11.221L7.79927 7.71473C7.65974 7.22857 7.22905 7.09107 6.69522 7.07143H2.77041L2.72794 7.22366C3.6864 7.42009 4.54173 7.70491 5.28787 8.06339L7.45956 14.6929H10.0377ZM15.7642 14.7027L17.2928 7.07143H14.8542L13.3316 14.7027H15.7642ZM24.2507 12.208C24.2629 11.3388 23.6077 10.6759 22.2064 10.1308C21.3511 9.78214 20.8294 9.54643 20.8294 9.18795C20.8415 8.86384 21.2722 8.52991 22.2307 8.52991C23.0254 8.51518 23.6077 8.66741 24.0445 8.81964L24.2629 8.90312L24.5965 7.25312C24.1173 7.10089 23.3529 6.92902 22.4127 6.92902C20.0044 6.92902 18.312 7.97009 18.2998 9.45312C18.2816 10.5482 19.5131 11.1571 20.4351 11.5254C21.3754 11.8987 21.6969 12.1442 21.6969 12.4732C21.6847 12.9839 20.9325 13.2196 20.2349 13.2196C19.2643 13.2196 18.7426 13.0969 17.948 12.8121L17.6265 12.6893L17.2868 14.4031C17.857 14.6143 18.9125 14.8009 20.0044 14.8107C22.5643 14.8156 24.2325 13.7893 24.2507 12.208ZM32.8162 14.7027L30.8507 7.07143H28.9642C28.3818 7.07143 27.939 7.20893 27.6903 7.70491L24.0688 14.7027H26.6287C26.6287 14.7027 27.0472 13.7598 27.1382 13.5585H30.2684C30.3412 13.8286 30.5596 14.7027 30.5596 14.7027H32.8162Z" fill="black"/>
</svg>
